<?xml version="1.0" encoding="utf-8"?>
<!-- Generator: Adobe Illustrator 24.3.0, SVG Export Plug-In . SVG Version: 6.00 Build 0)  -->
<svg version="1.1" id="Objects" xmlns="http://www.w3.org/2000/svg" xmlns:xlink="http://www.w3.org/1999/xlink" x="0px" y="0px"
	 viewBox="0 0 1200 300" style="enable-background:new 0 0 1200 300;" xml:space="preserve">
<style type="text/css">
	.st0{fill:#21B1D8;}
	.st1{enable-background:new    ;}
	.st2{fill:#FFC10E;}
</style>
<g>
	<g>
		<g>
			<path class="st0" d="M276.1,108.8h-21.3c0,0-0.1,12.3-0.2,14.6h21.6c8.1,0,14.6,6.6,14.6,14.6v36.6c0,8.1-6.6,14.6-14.6,14.6
				h-40.9c-8.5,0-14.8-0.8-19.5-2.4c-6.7-2.3-10-6-11.7-11.1c-3.3,0.1-6.4,0.2-9,0.2c-2,0-4,0-5.9,0c2.4,11.4,8.9,21.8,26.7,26
				c3.6,0.9,7.6,1.4,12.2,1.8v33.8c0,8.1-6.6,14.6-14.6,14.6h-36.6c-8.1,0-14.6-6.6-14.6-14.6v-40.9c0-32.9,12.4-32.9,32.9-32.9
				c20.1,0,47.6,0,47.6-47.6V75.3c0-16.2-13.1-29.3-29.3-29.3h-36.6c-16.1,0-29.3,13.1-29.3,29.3v33.6h-33.6
				c-16.2,0-29.3,13.1-29.3,29.3v36.6c0,16.1,13.1,29.3,29.3,29.3h21.4v-7.3c0-2.6,0.1-5,0.2-7.3h-21.6c-8.1,0-14.6-6.6-14.6-14.6
				v-36.6c0-8.1,6.6-14.6,14.6-14.6h40.9c8.5,0,14.8,0.8,19.5,2.4c6.7,2.3,10,6,11.7,11.2c3.3-0.1,6.4-0.2,9-0.2c2,0,4,0,5.9,0
				c-2.4-11.4-8.9-21.8-26.7-26c-3.6-0.8-7.6-1.4-12.2-1.7V75.3c0-8.1,6.6-14.6,14.6-14.6h36.6c8.1,0,14.6,6.6,14.6,14.6v40.9
				c0,32.9-12.4,32.9-32.9,32.9c-20.1,0-47.6,0-47.6,47.6v40.9c0,16.1,13.1,29.3,29.3,29.3h36.6c16.1,0,29.3-13.1,29.3-29.3V204H276
				c16.1,0,29.3-13.1,29.3-29.3v-36.6C305.4,122,292.2,108.8,276.1,108.8z"/>
		</g>
	</g>
	<g>
		<g class="st1">
			<path class="st2" d="M430.2,104.7L390.1,202l-39.9-97.3H382l8.4,28.7l9.3-28.7H430.2z"/>
			<path class="st2" d="M456.7,129.5v67.2h-25.2v-67.2H456.7z M444.1,99.5c3.4,0,6.4,1.2,8.9,3.6c2.5,2.4,3.7,5.2,3.7,8.5
				c0,3.5-1.2,6.4-3.5,8.6c-2.4,2.2-5.4,3.4-9.1,3.4c-3.7,0-6.7-1.1-9.1-3.4c-2.4-2.2-3.5-5.1-3.5-8.6c0-3.3,1.2-6.1,3.7-8.5
				C437.8,100.7,440.7,99.5,444.1,99.5z"/>
			<path class="st2" d="M504.5,169v23.1c-3.6,1.3-7.1,2-10.5,2c-8.1,0-15-3.1-20.7-9.2c-5.6-6.2-8.5-13.7-8.5-22.6
				c0-9.6,3.4-17.7,10.2-24.3c6.8-6.6,15.1-9.9,25-9.9c5.3,0,10.3,1.1,15.1,3.2c4.8,2.1,8.6,4.9,11.3,8.5c4.6,5.9,6.9,14.4,6.9,25.6
				v22.1c0,12-3.4,21.7-10.2,29.2c-6.8,7.5-15.7,11.2-26.6,11.2c-3.3,0-7.5-0.8-12.6-2.5v-22.9c3.3,1.8,6.6,2.7,10,2.7
				c4.5,0,8-1.5,10.5-4.5c2.5-3,3.7-7.3,3.7-12.8v-25.3c0-7.1-2.9-10.6-8.6-10.6c-2.4,0-4.6,0.9-6.4,2.8c-1.8,1.9-2.7,4-2.7,6.4
				c0,2.6,0.9,4.7,2.6,6.4c1.7,1.7,3.9,2.6,6.4,2.6C501.3,170.2,502.9,169.8,504.5,169z"/>
			<path class="st2" d="M577.2,128.1c9.5,0,17.7,3.4,24.5,10.3c6.8,6.9,10.2,15.1,10.2,24.6c0,9.7-3.5,18-10.4,24.8
				c-6.9,6.8-15.2,10.2-25,10.2c-9.8,0-18.1-3.4-25-10.3c-6.9-6.9-10.4-15.1-10.4-24.8c0-9.8,3.5-18.1,10.4-24.8
				C558.5,131.4,567.1,128.1,577.2,128.1z M576.6,152.9c-2.7,0-5,1-6.9,2.9c-1.9,2-2.8,4.3-2.8,7.2c0,2.8,1,5.2,2.9,7.1
				c1.9,2,4.2,3,6.8,3c2.7,0,5-1,6.9-3c1.9-2,2.9-4.4,2.9-7.1c0-2.8-0.9-5.2-2.8-7.2C581.6,153.9,579.3,152.9,576.6,152.9z"/>
			<path class="st2" d="M656.5,128.8v27c-1.8-1-3.3-1.5-4.8-1.5c-4.6,0-6.9,3.5-6.9,10.5v31.9h-25.2V160c0-9.7,2.7-17.5,8-23.2
				c5.3-5.8,12.4-8.7,21.2-8.7C650.8,128.1,653.3,128.3,656.5,128.8z"/>
			<path class="st2" d="M721.9,131.1v65.6h-27.4v-92h35.7c15.6,0,27.9,3.6,36.8,10.7c10.5,8.5,15.8,20,15.8,34.6
				c0,13.9-4.5,25.3-13.5,34.1c-9,8.8-20.6,13.2-34.7,13.2c-1.7,0-4.4-0.1-8.2-0.3v-27h4.4c16,0,23.9-6.7,23.9-20
				c0-12.5-7.8-18.8-23.5-18.8H721.9z"/>
			<path class="st2" d="M822.7,128.1c9.5,0,17.7,3.4,24.5,10.3s10.2,15.1,10.2,24.6c0,9.7-3.5,18-10.4,24.8
				c-6.9,6.8-15.2,10.2-25,10.2c-9.8,0-18.1-3.4-25-10.3s-10.4-15.1-10.4-24.8c0-9.8,3.5-18.1,10.4-24.8S812.5,128.1,822.7,128.1z
				 M822,152.9c-2.7,0-5,1-6.9,2.9c-1.9,2-2.8,4.3-2.8,7.2c0,2.8,1,5.2,2.9,7.1c1.9,2,4.2,3,6.8,3c2.7,0,5-1,6.9-3
				c1.9-2,2.9-4.4,2.9-7.1c0-2.8-0.9-5.2-2.8-7.2C827.1,153.9,824.8,152.9,822,152.9z"/>
			<path class="st2" d="M906.3,165.8l25-0.9c-0.7,9.7-4.3,17.7-10.9,23.9c-6.5,6.2-14.5,9.4-23.8,9.4c-9.9,0-18.2-3.4-25.1-10.3
				s-10.2-15.3-10.2-25.3c0-9.5,3.4-17.6,10.3-24.3c6.9-6.7,15.1-10.1,24.7-10.1c8.4,0,15.8,2.7,22.3,8c6.4,5.3,10.4,12.1,12,20.3
				l-25.6,0.9c-2.2-2.9-5-4.3-8.4-4.3c-2.9,0-5.2,0.9-7.1,2.8c-1.8,1.9-2.8,4.3-2.8,7.1c0,2.9,1,5.4,2.9,7.3c2,2,4.4,3,7.3,3
				C901.5,173.2,904.5,170.7,906.3,165.8z"/>
			<path class="st2" d="M961.9,104.7v25.8h11.3v26.6h-11.3c0,5.4,0.8,9,2.5,11.1c1.7,2,4.8,3,9.3,3v26.5c-1.3,0-2.3,0.1-2.9,0.1
				c-5.7,0-11.1-1.3-16.2-4c-5.1-2.7-9.1-6.2-12.2-10.8c-3.9-5.8-5.8-13.5-5.8-23.1v-55.2H961.9z"/>
			<path class="st2" d="M1014.6,128.1c9.5,0,17.7,3.4,24.5,10.3s10.2,15.1,10.2,24.6c0,9.7-3.5,18-10.4,24.8
				c-6.9,6.8-15.2,10.2-25,10.2c-9.8,0-18.1-3.4-25-10.3s-10.4-15.1-10.4-24.8c0-9.8,3.5-18.1,10.4-24.8S1004.5,128.1,1014.6,128.1z
				 M1013.9,152.9c-2.7,0-5,1-6.9,2.9c-1.9,2-2.8,4.3-2.8,7.2c0,2.8,1,5.2,2.9,7.1c1.9,2,4.2,3,6.8,3c2.7,0,5-1,6.9-3
				c1.9-2,2.9-4.4,2.9-7.1c0-2.8-0.9-5.2-2.8-7.2C1019,153.9,1016.7,152.9,1013.9,152.9z"/>
			<path class="st2" d="M1093.8,128.8v27c-1.8-1-3.3-1.5-4.8-1.5c-4.6,0-6.9,3.5-6.9,10.5v31.9H1057V160c0-9.7,2.7-17.5,8-23.2
				s12.4-8.7,21.2-8.7C1088.1,128.1,1090.7,128.3,1093.8,128.8z"/>
		</g>
	</g>
</g>
</svg>
